<svg xmlns="http://www.w3.org/2000/svg" version="1.1" viewBox="0.00 0.00 300.00 300.00" width="300.00" height="300.00">
<g stroke-width="2.00" fill="none" stroke-linecap="butt">
<path stroke="#86898d" d="&#10;  M 180.61 12.22&#10;  Q 157.20 13.16 138.06 25.55&#10;  Q 132.38 29.23 130.21 32.20&#10;  C 128.26 34.87 130.10 37.82 133.29 36.91&#10;  Q 146.10 33.29 158.50 32.96&#10;  Q 167.82 32.71 177.41 33.55"/>
<path stroke="#7d4c5a" d="&#10;  M 177.41 33.55&#10;  Q 196.14 35.31 213.41 43.27&#10;  Q 225.18 48.70 234.40 57.81&#10;  Q 250.82 74.04 248.84 97.26&#10;  C 247.70 110.69 238.27 124.09 225.72 129.32&#10;  Q 225.23 129.52 225.60 129.90&#10;  Q 227.58 131.93 230.93 135.31&#10;  Q 241.78 146.24 248.03 159.94"/>
<path stroke="#6e4450" d="&#10;  M 248.03 159.94&#10;  Q 252.10 169.55 253.65 179.43&#10;  A 0.40 0.40 0.0 0 0 254.27 179.69&#10;  C 270.03 168.65 280.93 151.88 287.94 134.19&#10;  C 295.84 114.25 298.01 91.98 290.07 71.88"/>
<path stroke="#7d4c5a" d="&#10;  M 290.07 71.88&#10;  C 282.22 52.04 266.96 37.87 248.22 27.77&#10;  Q 225.18 15.35 199.99 12.55&#10;  Q 190.15 11.45 180.61 12.22"/>
<path stroke="#de7d90" d="&#10;  M 290.07 71.88&#10;  Q 290.37 76.58 290.73 81.08&#10;  Q 291.94 96.43 286.88 111.02&#10;  Q 276.05 142.30 248.03 159.94"/>
<path stroke="#f6c2cc" d="&#10;  M 177.41 33.55&#10;  Q 173.56 24.42 178.40 16.07&#10;  Q 179.46 14.24 180.61 12.22"/>
<path stroke="#6e4450" d="&#10;  M 117.23 155.88&#10;  Q 118.87 161.76 124.78 163.46&#10;  Q 135.39 166.52 141.33 156.59"/>
<path stroke="#7d4c5a" d="&#10;  M 141.33 156.59&#10;  Q 145.25 147.36 140.32 138.56&#10;  Q 137.81 134.09 134.60 132.14&#10;  C 129.48 129.02 121.81 128.76 116.50 130.22&#10;  C 108.11 132.52 103.20 140.95 104.84 149.50&#10;  Q 104.91 149.84 104.57 149.87&#10;  L 104.24 149.90&#10;  Q 104.02 149.91 103.94 149.71&#10;  Q 102.21 144.86 103.76 140.15&#10;  Q 104.03 139.33 103.25 138.98&#10;  Q 93.85 134.69 84.56 133.96&#10;  C 70.04 132.82 56.18 134.83 42.86 141.83&#10;  Q 42.63 141.96 42.44 141.77&#10;  L 42.19 141.52&#10;  Q 42.09 141.42 42.20 141.33&#10;  Q 46.08 138.31 50.87 136.53&#10;  Q 51.35 136.35 51.03 135.96&#10;  C 44.43 127.97 33.72 126.40 25.48 131.98&#10;  Q 20.36 135.45 19.56 140.79"/>
<path stroke="#6e4450" d="&#10;  M 19.56 140.79&#10;  Q 17.40 150.09 22.98 156.23&#10;  A 0.59 0.58 -46.8 0 0 23.87 156.20&#10;  L 26.75 152.48"/>
<path stroke="#7d4c5a" d="&#10;  M 26.75 152.48&#10;  L 29.82 149.80&#10;  A 0.60 0.60 0.0 0 1 30.64 149.83&#10;  L 30.90 150.09&#10;  A 0.14 0.14 0.0 0 1 30.91 150.28&#10;  L 26.49 155.14&#10;  Q 25.83 155.86 26.78 155.64&#10;  Q 31.58 154.51 32.42 158.75&#10;  Q 33.79 165.65 30.58 174.59&#10;  Q 30.38 175.14 30.97 175.10&#10;  C 32.56 175.00 34.38 173.99 36.15 173.75&#10;  Q 48.11 172.18 58.43 177.27&#10;  Q 60.08 178.08 65.37 181.57&#10;  Q 68.68 183.76 72.39 185.82&#10;  Q 73.04 186.18 72.77 185.49&#10;  Q 70.32 179.19 72.45 172.72&#10;  Q 77.10 158.62 91.38 158.40&#10;  C 105.03 158.18 111.79 171.75 110.62 183.81&#10;  C 109.93 190.91 103.74 196.10 97.21 198.04&#10;  Q 96.14 198.36 97.19 198.73&#10;  C 100.91 200.03 106.54 201.36 110.05 203.98&#10;  Q 119.91 211.35 114.29 224.24&#10;  Q 112.72 227.84 106.72 234.07"/>
<path stroke="#6e4450" d="&#10;  M 106.72 234.07&#10;  Q 98.93 242.22 88.85 247.66&#10;  Q 88.04 248.10 88.94 248.30&#10;  L 102.91 251.40&#10;  Q 103.44 251.52 103.57 250.99&#10;  Q 105.50 243.19 108.94 236.00"/>
<path stroke="#7d4c5a" d="&#10;  M 108.94 236.00&#10;  Q 112.35 229.19 117.30 223.18&#10;  A 0.27 0.26 -66.1 0 1 117.52 223.09&#10;  L 118.34 223.15&#10;  Q 118.54 223.17 118.42 223.33&#10;  C 106.82 239.17 102.57 259.14 103.92 278.50&#10;  Q 103.96 279.00 104.45 278.91&#10;  Q 111.48 277.69 118.44 279.55"/>
<path stroke="#6e4450" d="&#10;  M 118.44 279.55&#10;  L 122.01 282.76&#10;  Q 122.36 283.08 122.76 282.83&#10;  Q 129.68 278.54 136.74 270.99&#10;  Q 149.61 257.23 156.45 241.56"/>
<path stroke="#7d4c5a" d="&#10;  M 156.45 241.56&#10;  Q 158.88 236.64 159.93 231.13&#10;  Q 159.99 230.84 160.28 230.86&#10;  L 160.62 230.89&#10;  A 0.23 0.23 0.0 0 1 160.83 231.17&#10;  L 158.86 240.70"/>
<path stroke="#6e4450" d="&#10;  M 158.86 240.70&#10;  L 153.22 252.92&#10;  Q 153.00 253.41 153.53 253.37&#10;  C 164.45 252.65 174.60 250.76 184.92 248.01&#10;  Q 198.93 244.29 210.93 235.46&#10;  Q 218.61 229.81 223.42 220.82"/>
<path stroke="#7d4c5a" d="&#10;  M 223.42 220.82&#10;  L 226.11 215.75&#10;  A 0.40 0.40 0.0 0 1 226.84 215.83&#10;  Q 226.98 216.32 226.81 216.82&#10;  Q 223.66 225.96 218.14 232.27"/>
<path stroke="#6e4450" d="&#10;  M 218.14 232.27&#10;  L 207.29 241.06&#10;  Q 206.90 241.38 206.99 241.88&#10;  Q 209.59 254.97 215.16 267.11&#10;  Q 215.37 267.57 215.81 267.30&#10;  L 219.33 265.11"/>
<path stroke="#7d4c5a" d="&#10;  M 219.33 265.11&#10;  Q 225.95 263.77 231.65 265.07&#10;  C 233.07 265.39 233.61 266.19 234.53 267.05&#10;  A 0.58 0.58 0.0 0 0 235.43 266.93&#10;  C 248.96 244.34 254.01 215.77 252.32 189.76&#10;  Q 250.20 156.93 226.91 134.94&#10;  Q 206.48 115.64 179.76 109.92&#10;  Q 155.85 104.80 131.52 110.04&#10;  Q 124.89 111.47 117.90 114.36&#10;  C 106.82 118.93 97.66 124.11 89.48 131.79&#10;  A 0.32 0.32 0.0 0 0 89.65 132.33&#10;  Q 97.42 133.59 104.38 136.98&#10;  Q 104.84 137.21 105.11 136.77&#10;  Q 110.53 127.72 121.25 127.25&#10;  C 130.31 126.85 137.79 128.92 142.49 137.29&#10;  C 148.39 147.78 146.02 159.45 134.89 165.09&#10;  Q 134.37 165.35 134.65 165.86&#10;  Q 139.77 175.33 142.26 185.90&#10;  A 0.23 0.23 0.0 0 1 141.98 186.18&#10;  L 141.61 186.10&#10;  Q 141.30 186.03 141.21 185.74&#10;  Q 137.89 175.54 132.63 166.59&#10;  Q 132.30 166.02 131.65 166.02&#10;  C 129.03 166.01 126.69 166.18 124.70 165.51&#10;  Q 116.38 162.67 115.16 155.16&#10;  C 113.98 147.93 118.32 142.53 126.00 142.96&#10;  Q 131.79 143.28 133.47 148.44&#10;  Q 133.49 148.49 133.46 148.54&#10;  Q 133.35 148.74 133.27 148.77&#10;  A 0.37 0.33 61.4 0 1 132.88 148.63&#10;  Q 128.18 142.16 121.30 145.33&#10;  Q 114.93 148.26 117.23 155.88"/>
<path stroke="#de7d90" d="&#10;  M 219.33 265.11&#10;  Q 216.44 249.44 218.14 232.27"/>
<path stroke="#de7d90" d="&#10;  M 223.42 220.82&#10;  Q 213.76 228.48 204.49 232.01&#10;  Q 183.00 240.18 158.86 240.70"/>
<path stroke="#de7d90" d="&#10;  M 156.45 241.56&#10;  Q 140.74 265.03 118.44 279.55"/>
<path stroke="#de7d90" d="&#10;  M 108.94 236.00&#10;  Q 106.89 235.94 106.72 234.07"/>
<path stroke="#de7d90" d="&#10;  M 26.75 152.48&#10;  Q 22.05 148.41 19.56 140.79"/>
<path stroke="#de7d90" d="&#10;  M 141.33 156.59&#10;  Q 133.81 160.86 126.50 160.24&#10;  Q 122.05 159.87 117.23 155.88"/>
<path stroke="#86898d" d="&#10;  M 18.47 169.05&#10;  Q 15.87 174.79 14.21 181.63&#10;  Q 14.00 182.50 14.75 182.01&#10;  Q 20.23 178.43 27.30 176.16&#10;  Q 27.77 176.01 27.99 175.57&#10;  C 30.13 171.27 32.55 162.45 30.05 157.99&#10;  Q 29.83 157.60 29.41 157.48&#10;  Q 26.12 156.49 24.19 158.68&#10;  Q 22.08 161.07 18.47 169.05"/>
<path stroke="#86898d" d="&#10;  M 101.49 193.99&#10;  C 112.38 187.42 109.88 173.01 102.34 165.04&#10;  Q 99.47 162.01 96.31 161.29&#10;  Q 86.12 158.96 79.41 165.32&#10;  C 73.76 170.68 71.95 179.02 75.04 186.18&#10;  Q 75.76 187.83 78.30 189.21&#10;  Q 84.73 192.68 90.14 195.34&#10;  Q 93.25 196.87 95.44 196.52&#10;  Q 97.99 196.10 101.49 193.99"/>
<path stroke="#757258" d="&#10;  M 7.58 212.56&#10;  Q 10.78 216.09 14.76 215.28&#10;  Q 18.07 214.61 21.32 213.72&#10;  Q 34.30 210.19 46.26 213.68&#10;  Q 46.29 213.69 53.49 216.18&#10;  Q 63.41 219.61 74.00 220.08&#10;  Q 80.25 220.37 86.46 220.12&#10;  Q 91.94 219.91 97.66 217.42"/>
<path stroke="#868263" d="&#10;  M 97.66 217.42&#10;  L 104.47 214.77"/>
<path stroke="#757258" d="&#10;  M 104.47 214.77&#10;  Q 102.06 217.24 99.66 218.27&#10;  Q 99.20 218.47 99.07 218.95&#10;  Q 95.46 231.96 83.79 239.27&#10;  C 75.20 244.64 66.65 247.36 56.84 247.28&#10;  C 46.10 247.20 34.22 245.95 27.49 236.32&#10;  Q 20.72 226.62 26.19 214.82&#10;  Q 26.43 214.29 25.85 214.35&#10;  L 24.50 214.48&#10;  Q 23.84 214.54 23.82 215.21&#10;  C 23.75 218.12 22.42 220.66 22.27 223.57&#10;  C 21.60 236.62 28.32 247.27 40.59 251.45&#10;  Q 46.36 253.42 49.27 253.45&#10;  C 54.83 253.52 60.69 253.77 65.86 252.95&#10;  Q 78.20 250.99 88.54 245.53&#10;  Q 101.26 238.81 109.39 227.84"/>
<path stroke="#868263" d="&#10;  M 109.39 227.84&#10;  C 117.26 218.75 115.63 206.42 103.36 202.72&#10;  Q 96.84 200.75 89.73 197.36&#10;  Q 74.97 190.32 63.65 182.89&#10;  C 59.75 180.32 55.52 178.04 51.62 177.15&#10;  C 38.50 174.16 23.36 177.73 12.92 185.88&#10;  Q 3.95 192.88 4.05 204.23&#10;  Q 4.09 209.27 7.58 212.56"/>
<path stroke="#eee1a1" d="&#10;  M 109.39 227.84&#10;  Q 110.75 216.72 104.47 214.77"/>
<path stroke="#eee1a1" d="&#10;  M 97.66 217.42&#10;  Q 84.92 218.06 73.48 217.36&#10;  Q 62.76 216.70 51.64 211.89&#10;  Q 42.13 207.79 31.74 208.72&#10;  Q 22.89 209.52 21.77 209.81&#10;  Q 14.88 211.62 7.58 212.56"/>
<path stroke="#50210d" d="&#10;  M 33.17 226.30&#10;  Q 34.10 218.99 39.70 214.79&#10;  A 0.38 0.37 30.9 0 0 39.53 214.12&#10;  Q 35.93 213.52 30.42 213.75&#10;  C 28.49 213.83 27.55 215.19 26.98 216.80&#10;  Q 22.08 230.60 32.66 239.21&#10;  C 34.71 240.88 37.45 242.11 39.42 242.94&#10;  Q 41.92 244.00 39.74 242.39&#10;  Q 31.87 236.60 33.17 226.30"/>
<path stroke="#7d4c5a" d="&#10;  M 35.03 228.04&#10;  Q 34.58 235.06 39.91 240.08&#10;  Q 44.38 244.29 48.51 244.98&#10;  Q 50.58 245.33 57.17 245.27&#10;  C 67.24 245.18 75.83 242.56 84.36 236.81"/>
<path stroke="#6e4450" d="&#10;  M 84.36 236.81&#10;  Q 93.45 231.02 96.57 220.12&#10;  Q 96.73 219.56 96.17 219.72&#10;  C 88.24 222.01 82.55 222.08 75.03 221.91&#10;  A 2.41 2.40 -86.5 0 0 72.59 224.08&#10;  Q 72.37 226.41 70.21 227.79"/>
<path stroke="#7d4c5a" d="&#10;  M 70.21 227.79&#10;  Q 65.83 228.36 64.08 226.18"/>
<path stroke="#6e4450" d="&#10;  M 64.08 226.18&#10;  L 63.44 221.66&#10;  Q 63.40 221.37 63.12 221.27&#10;  L 43.91 214.87&#10;  A 1.51 1.51 0.0 0 0 42.86 214.90&#10;  C 37.90 216.87 35.11 223.13 35.03 228.04"/>
<path stroke="#de7d90" d="&#10;  M 64.08 226.18&#10;  Q 53.39 224.55 44.14 225.64&#10;  Q 40.45 226.08 35.03 228.04"/>
<path stroke="#de7d90" d="&#10;  M 84.36 236.81&#10;  Q 78.75 231.38 70.21 227.79"/>
<path stroke="#86898d" d="&#10;  M 21.62 215.14&#10;  L 15.41 216.86&#10;  A 0.22 0.22 0.0 0 0 15.26 217.13&#10;  L 15.40 217.63&#10;  A 3.80 3.28 74.5 0 0 19.57 220.42&#10;  L 19.88 220.33&#10;  A 3.80 3.28 74.5 0 0 22.03 215.80&#10;  L 21.89 215.30&#10;  A 0.22 0.22 0.0 0 0 21.62 215.14"/>
<path stroke="#86898d" d="&#10;  M 71.26 222.08&#10;  L 65.63 221.38&#10;  A 0.27 0.27 0.0 0 0 65.33 221.61&#10;  L 65.15 223.07&#10;  A 2.90 2.39 -82.9 0 0 67.16 226.24&#10;  L 68.59 226.42&#10;  A 2.90 2.39 -82.9 0 0 71.32 223.84&#10;  L 71.50 222.38&#10;  A 0.27 0.27 0.0 0 0 71.26 222.08"/>
<path stroke="#7d4c5a" d="&#10;  M 45.38 255.01&#10;  L 40.92 253.83&#10;  A 0.60 0.59 -80.0 0 0 40.17 254.36&#10;  L 39.35 264.70&#10;  Q 39.26 265.72 40.28 265.59&#10;  Q 43.36 265.18 47.10 265.95"/>
<path stroke="#6e4450" d="&#10;  M 47.10 265.95&#10;  Q 51.99 267.06 53.66 271.25&#10;  Q 54.17 272.54 55.44 272.00&#10;  Q 72.05 265.01 81.66 251.72&#10;  Q 82.57 250.46 81.12 251.02&#10;  Q 64.57 257.31 45.38 255.01"/>
<path stroke="#de7d90" d="&#10;  M 47.10 265.95&#10;  Q 47.52 260.83 45.38 255.01"/>
<path stroke="#6e4450" d="&#10;  M 148.70 260.03&#10;  C 152.92 259.75 155.27 260.66 158.42 263.53&#10;  Q 158.73 263.81 159.07 263.55&#10;  Q 163.66 259.84 167.11 254.55&#10;  A 0.14 0.14 0.0 0 0 166.98 254.34&#10;  L 151.52 255.85&#10;  Q 151.26 255.88 151.12 256.09&#10;  L 148.59 259.84&#10;  A 0.12 0.12 0.0 0 0 148.70 260.03"/>
<path stroke="#86898d" d="&#10;  M 147.76 261.55&#10;  A 0.93 0.91 14.6 0 0 147.15 261.90&#10;  L 143.09 267.03&#10;  A 0.59 0.59 0.0 0 0 143.42 267.97&#10;  Q 149.74 269.42 155.76 267.31&#10;  A 1.81 1.78 1.8 0 0 156.80 266.35&#10;  Q 157.62 264.45 155.42 263.01&#10;  Q 152.25 260.94 147.76 261.55"/>
<path stroke="#86898d" d="&#10;  M 234.0286 269.5882&#10;  A 8.93 4.25 -2.9 0 0 224.8950 265.7954&#10;  A 8.93 4.25 -2.9 0 0 216.1914 270.4918&#10;  A 8.93 4.25 -2.9 0 0 225.3250 274.2846&#10;  A 8.93 4.25 -2.9 0 0 234.0286 269.5882"/>
<path stroke="#86898d" d="&#10;  M 52.02 271.52&#10;  C 48.96 266.82 44.88 267.15 39.70 267.24&#10;  Q 37.73 267.28 36.70 268.18&#10;  Q 34.88 269.76 35.38 271.51&#10;  C 36.55 275.65 45.81 275.11 49.22 274.88&#10;  Q 50.84 274.77 51.80 273.78&#10;  A 1.82 1.82 0.0 0 0 52.02 271.52"/>
<path stroke="#86898d" d="&#10;  M 120.4500 283.7468&#10;  A 9.65 3.80 0.1 0 0 110.8066 279.9300&#10;  A 9.65 3.80 0.1 0 0 101.1500 283.7132&#10;  A 9.65 3.80 0.1 0 0 110.7934 287.5300&#10;  A 9.65 3.80 0.1 0 0 120.4500 283.7468"/>
<path stroke="#86898d" d="&#10;  M 25.4367 171.2192&#10;  A 1.41 0.91 88.1 0 0 26.2995 169.7798&#10;  A 1.41 0.91 88.1 0 0 25.3433 168.4008&#10;  A 1.41 0.91 88.1 0 0 24.4805 169.8402&#10;  A 1.41 0.91 88.1 0 0 25.4367 171.2192"/>
<path stroke="#86898d" d="&#10;  M 95.0279 176.7594&#10;  A 0.92 0.92 0.0 0 0 94.1506 175.7986&#10;  L 93.8310 175.7841&#10;  A 0.92 0.92 0.0 0 0 92.8702 176.6614&#10;  L 92.8321 177.5006&#10;  A 0.92 0.92 0.0 0 0 93.7094 178.4614&#10;  L 94.0290 178.4759&#10;  A 0.92 0.92 0.0 0 0 94.9898 177.5986&#10;  L 95.0279 176.7594"/>
<path stroke="#868263" d="&#10;  M 22.09 200.10&#10;  L 20.82 200.54&#10;  A 0.22 0.22 0.0 0 0 20.69 200.82&#10;  L 20.73 200.95&#10;  A 5.52 0.72 70.9 0 0 23.22 205.93&#10;  L 23.54 205.82&#10;  A 5.52 0.72 70.9 0 0 22.42 200.37&#10;  L 22.37 200.24&#10;  A 0.22 0.22 0.0 0 0 22.09 200.10"/>
<path stroke="#868263" d="&#10;  M 41.31 201.16&#10;  L 37.35 205.26&#10;  A 0.15 0.15 0.0 0 0 37.35 205.47&#10;  L 37.38 205.49&#10;  A 1.84 1.32 -46.0 0 0 39.60 205.09&#10;  L 41.22 203.42&#10;  A 1.84 1.32 -46.0 0 0 41.54 201.18&#10;  L 41.52 201.16&#10;  A 0.15 0.15 0.0 0 0 41.31 201.16"/>
</g>
<path fill="#0d131a" d="&#10;  M 102.76 253.53&#10;  L 85.89 249.78&#10;  Q 85.37 249.67 85.07 250.11&#10;  Q 74.16 266.69 55.63 273.76&#10;  Q 54.87 274.05 52.06 275.71&#10;  C 49.87 277.01 46.66 276.83 44.79 276.99&#10;  Q 39.85 277.41 35.91 274.67&#10;  C 31.46 271.57 33.04 267.96 37.40 265.77&#10;  Q 37.86 265.54 37.82 265.02&#10;  Q 37.38 259.71 38.74 253.61&#10;  Q 38.85 253.10 38.37 252.88&#10;  Q 30.12 249.26 25.62 243.15&#10;  Q 19.51 234.85 20.20 225.07&#10;  Q 20.33 223.13 20.27 222.75&#10;  Q 20.12 221.82 19.19 221.94&#10;  C 15.31 222.43 14.71 220.60 13.88 217.43&#10;  Q 13.74 216.91 13.20 216.87&#10;  C 5.36 216.28 1.59 210.00 2.00 202.35&#10;  Q 2.58 191.50 11.26 184.57&#10;  Q 11.64 184.27 11.75 183.79&#10;  Q 14.78 170.98 22.35 158.58&#10;  A 0.60 0.60 0.0 0 0 22.23 157.82&#10;  Q 17.31 153.51 17.03 146.79&#10;  C 16.45 132.81 26.77 125.15 39.83 127.22&#10;  Q 47.56 128.45 52.95 135.06&#10;  Q 53.27 135.46 53.77 135.34&#10;  C 56.52 134.72 59.60 133.28 62.21 132.80&#10;  Q 73.04 130.79 85.40 131.73&#10;  Q 85.89 131.77 86.25 131.43&#10;  Q 97.54 120.51 111.96 114.21&#10;  C 115.79 112.54 120.18 110.58 124.56 109.37&#10;  Q 135.14 106.45 145.84 105.52&#10;  Q 149.82 105.17 151.67 105.25&#10;  C 154.35 105.37 156.61 105.02 159.43 105.07&#10;  Q 194.69 105.66 222.14 127.14&#10;  Q 222.55 127.46 223.03 127.30&#10;  Q 226.23 126.26 229.15 124.18&#10;  Q 247.03 111.49 246.24 89.53&#10;  C 245.40 66.28 224.49 50.41 204.73 42.58&#10;  Q 183.96 34.36 158.50 35.25&#10;  Q 144.48 35.74 133.51 39.25&#10;  Q 133.05 39.40 131.21 39.28&#10;  Q 129.94 39.19 129.11 38.36&#10;  C 124.64 33.86 129.10 29.26 133.08 26.25&#10;  C 146.45 16.14 162.76 11.53 179.59 10.44&#10;  Q 217.02 8.03 249.55 25.71&#10;  Q 261.94 32.45 270.25 39.75&#10;  C 285.87 53.47 296.31 72.23 297.61 93.11&#10;  C 299.05 116.27 291.84 137.77 279.52 157.31&#10;  Q 269.05 173.90 254.74 183.09&#10;  Q 254.29 183.38 254.34 183.90&#10;  Q 257.40 215.85 247.42 245.16&#10;  Q 243.05 258.00 236.69 268.20&#10;  Q 236.01 269.29 235.64 270.83&#10;  Q 235.22 272.57 234.07 273.32&#10;  Q 225.96 278.61 217.34 274.72&#10;  Q 213.97 273.20 214.33 269.79&#10;  A 1.70 1.69 -55.4 0 0 214.16 268.86&#10;  Q 208.31 257.21 205.02 242.90&#10;  Q 204.92 242.45 204.51 242.67&#10;  Q 195.84 247.50 186.53 250.27&#10;  Q 183.04 251.30 170.47 253.84&#10;  Q 169.97 253.94 169.67 254.35&#10;  Q 165.36 260.27 159.62 265.45&#10;  C 158.37 266.58 157.56 268.53 155.69 269.17&#10;  Q 148.45 271.64 141.86 269.03&#10;  Q 141.40 268.85 141.09 269.24&#10;  Q 132.88 279.41 122.92 284.74&#10;  Q 122.10 285.18 121.30 286.06&#10;  Q 120.23 287.23 119.70 287.44&#10;  Q 109.56 291.42 101.42 287.36&#10;  Q 98.23 285.77 99.84 282.19&#10;  C 100.37 281.02 101.98 281.00 101.81 279.01&#10;  Q 100.69 266.26 103.02 253.91&#10;  Q 103.08 253.60 102.76 253.53&#10;  Z&#10;  M 180.61 12.22&#10;  Q 157.20 13.16 138.06 25.55&#10;  Q 132.38 29.23 130.21 32.20&#10;  C 128.26 34.87 130.10 37.82 133.29 36.91&#10;  Q 146.10 33.29 158.50 32.96&#10;  Q 167.82 32.71 177.41 33.55&#10;  Q 196.14 35.31 213.41 43.27&#10;  Q 225.18 48.70 234.40 57.81&#10;  Q 250.82 74.04 248.84 97.26&#10;  C 247.70 110.69 238.27 124.09 225.72 129.32&#10;  Q 225.23 129.52 225.60 129.90&#10;  Q 227.58 131.93 230.93 135.31&#10;  Q 241.78 146.24 248.03 159.94&#10;  Q 252.10 169.55 253.65 179.43&#10;  A 0.40 0.40 0.0 0 0 254.27 179.69&#10;  C 270.03 168.65 280.93 151.88 287.94 134.19&#10;  C 295.84 114.25 298.01 91.98 290.07 71.88&#10;  C 282.22 52.04 266.96 37.87 248.22 27.77&#10;  Q 225.18 15.35 199.99 12.55&#10;  Q 190.15 11.45 180.61 12.22&#10;  Z&#10;  M 117.23 155.88&#10;  Q 118.87 161.76 124.78 163.46&#10;  Q 135.39 166.52 141.33 156.59&#10;  Q 145.25 147.36 140.32 138.56&#10;  Q 137.81 134.09 134.60 132.14&#10;  C 129.48 129.02 121.81 128.76 116.50 130.22&#10;  C 108.11 132.52 103.20 140.95 104.84 149.50&#10;  Q 104.91 149.84 104.57 149.87&#10;  L 104.24 149.90&#10;  Q 104.02 149.91 103.94 149.71&#10;  Q 102.21 144.86 103.76 140.15&#10;  Q 104.03 139.33 103.25 138.98&#10;  Q 93.85 134.69 84.56 133.96&#10;  C 70.04 132.82 56.18 134.83 42.86 141.83&#10;  Q 42.63 141.96 42.44 141.77&#10;  L 42.19 141.52&#10;  Q 42.09 141.42 42.20 141.33&#10;  Q 46.08 138.31 50.87 136.53&#10;  Q 51.35 136.35 51.03 135.96&#10;  C 44.43 127.97 33.72 126.40 25.48 131.98&#10;  Q 20.36 135.45 19.56 140.79&#10;  Q 17.40 150.09 22.98 156.23&#10;  A 0.59 0.58 -46.8 0 0 23.87 156.20&#10;  L 26.75 152.48&#10;  L 29.82 149.80&#10;  A 0.60 0.60 0.0 0 1 30.64 149.83&#10;  L 30.90 150.09&#10;  A 0.14 0.14 0.0 0 1 30.91 150.28&#10;  L 26.49 155.14&#10;  Q 25.83 155.86 26.78 155.64&#10;  Q 31.58 154.51 32.42 158.75&#10;  Q 33.79 165.65 30.58 174.59&#10;  Q 30.38 175.14 30.97 175.10&#10;  C 32.56 175.00 34.38 173.99 36.15 173.75&#10;  Q 48.11 172.18 58.43 177.27&#10;  Q 60.08 178.08 65.37 181.57&#10;  Q 68.68 183.76 72.39 185.82&#10;  Q 73.04 186.18 72.77 185.49&#10;  Q 70.32 179.19 72.45 172.72&#10;  Q 77.10 158.62 91.38 158.40&#10;  C 105.03 158.18 111.79 171.75 110.62 183.81&#10;  C 109.93 190.91 103.74 196.10 97.21 198.04&#10;  Q 96.14 198.36 97.19 198.73&#10;  C 100.91 200.03 106.54 201.36 110.05 203.98&#10;  Q 119.91 211.35 114.29 224.24&#10;  Q 112.72 227.84 106.72 234.07&#10;  Q 98.93 242.22 88.85 247.66&#10;  Q 88.04 248.10 88.94 248.30&#10;  L 102.91 251.40&#10;  Q 103.44 251.52 103.57 250.99&#10;  Q 105.50 243.19 108.94 236.00&#10;  Q 112.35 229.19 117.30 223.18&#10;  A 0.27 0.26 -66.1 0 1 117.52 223.09&#10;  L 118.34 223.15&#10;  Q 118.54 223.17 118.42 223.33&#10;  C 106.82 239.17 102.57 259.14 103.92 278.50&#10;  Q 103.96 279.00 104.45 278.91&#10;  Q 111.48 277.69 118.44 279.55&#10;  L 122.01 282.76&#10;  Q 122.36 283.08 122.76 282.83&#10;  Q 129.68 278.54 136.74 270.99&#10;  Q 149.61 257.23 156.45 241.56&#10;  Q 158.88 236.64 159.93 231.13&#10;  Q 159.99 230.84 160.28 230.86&#10;  L 160.62 230.89&#10;  A 0.23 0.23 0.0 0 1 160.83 231.17&#10;  L 158.86 240.70&#10;  L 153.22 252.92&#10;  Q 153.00 253.41 153.53 253.37&#10;  C 164.45 252.65 174.60 250.76 184.92 248.01&#10;  Q 198.93 244.29 210.93 235.46&#10;  Q 218.61 229.81 223.42 220.82&#10;  L 226.11 215.75&#10;  A 0.40 0.40 0.0 0 1 226.84 215.83&#10;  Q 226.98 216.32 226.81 216.82&#10;  Q 223.66 225.96 218.14 232.27&#10;  L 207.29 241.06&#10;  Q 206.90 241.38 206.99 241.88&#10;  Q 209.59 254.97 215.16 267.11&#10;  Q 215.37 267.57 215.81 267.30&#10;  L 219.33 265.11&#10;  Q 225.95 263.77 231.65 265.07&#10;  C 233.07 265.39 233.61 266.19 234.53 267.05&#10;  A 0.58 0.58 0.0 0 0 235.43 266.93&#10;  C 248.96 244.34 254.01 215.77 252.32 189.76&#10;  Q 250.20 156.93 226.91 134.94&#10;  Q 206.48 115.64 179.76 109.92&#10;  Q 155.85 104.80 131.52 110.04&#10;  Q 124.89 111.47 117.90 114.36&#10;  C 106.82 118.93 97.66 124.11 89.48 131.79&#10;  A 0.32 0.32 0.0 0 0 89.65 132.33&#10;  Q 97.42 133.59 104.38 136.98&#10;  Q 104.84 137.21 105.11 136.77&#10;  Q 110.53 127.72 121.25 127.25&#10;  C 130.31 126.85 137.79 128.92 142.49 137.29&#10;  C 148.39 147.78 146.02 159.45 134.89 165.09&#10;  Q 134.37 165.35 134.65 165.86&#10;  Q 139.77 175.33 142.26 185.90&#10;  A 0.23 0.23 0.0 0 1 141.98 186.18&#10;  L 141.61 186.10&#10;  Q 141.30 186.03 141.21 185.74&#10;  Q 137.89 175.54 132.63 166.59&#10;  Q 132.30 166.02 131.65 166.02&#10;  C 129.03 166.01 126.69 166.18 124.70 165.51&#10;  Q 116.38 162.67 115.16 155.16&#10;  C 113.98 147.93 118.32 142.53 126.00 142.96&#10;  Q 131.79 143.28 133.47 148.44&#10;  Q 133.49 148.49 133.46 148.54&#10;  Q 133.35 148.74 133.27 148.77&#10;  A 0.37 0.33 61.4 0 1 132.88 148.63&#10;  Q 128.18 142.16 121.30 145.33&#10;  Q 114.93 148.26 117.23 155.88&#10;  Z&#10;  M 18.47 169.05&#10;  Q 15.87 174.79 14.21 181.63&#10;  Q 14.00 182.50 14.75 182.01&#10;  Q 20.23 178.43 27.30 176.16&#10;  Q 27.77 176.01 27.99 175.57&#10;  C 30.13 171.27 32.55 162.45 30.05 157.99&#10;  Q 29.83 157.60 29.41 157.48&#10;  Q 26.12 156.49 24.19 158.68&#10;  Q 22.08 161.07 18.47 169.05&#10;  Z&#10;  M 101.49 193.99&#10;  C 112.38 187.42 109.88 173.01 102.34 165.04&#10;  Q 99.47 162.01 96.31 161.29&#10;  Q 86.12 158.96 79.41 165.32&#10;  C 73.76 170.68 71.95 179.02 75.04 186.18&#10;  Q 75.76 187.83 78.30 189.21&#10;  Q 84.73 192.68 90.14 195.34&#10;  Q 93.25 196.87 95.44 196.52&#10;  Q 97.99 196.10 101.49 193.99&#10;  Z&#10;  M 7.58 212.56&#10;  Q 10.78 216.09 14.76 215.28&#10;  Q 18.07 214.61 21.32 213.72&#10;  Q 34.30 210.19 46.26 213.68&#10;  Q 46.29 213.69 53.49 216.18&#10;  Q 63.41 219.61 74.00 220.08&#10;  Q 80.25 220.37 86.46 220.12&#10;  Q 91.94 219.91 97.66 217.42&#10;  L 104.47 214.77&#10;  Q 102.06 217.24 99.66 218.27&#10;  Q 99.20 218.47 99.07 218.95&#10;  Q 95.46 231.96 83.79 239.27&#10;  C 75.20 244.64 66.65 247.36 56.84 247.28&#10;  C 46.10 247.20 34.22 245.95 27.49 236.32&#10;  Q 20.72 226.62 26.19 214.82&#10;  Q 26.43 214.29 25.85 214.35&#10;  L 24.50 214.48&#10;  Q 23.84 214.54 23.82 215.21&#10;  C 23.75 218.12 22.42 220.66 22.27 223.57&#10;  C 21.60 236.62 28.32 247.27 40.59 251.45&#10;  Q 46.36 253.42 49.27 253.45&#10;  C 54.83 253.52 60.69 253.77 65.86 252.95&#10;  Q 78.20 250.99 88.54 245.53&#10;  Q 101.26 238.81 109.39 227.84&#10;  C 117.26 218.75 115.63 206.42 103.36 202.72&#10;  Q 96.84 200.75 89.73 197.36&#10;  Q 74.97 190.32 63.65 182.89&#10;  C 59.75 180.32 55.52 178.04 51.62 177.15&#10;  C 38.50 174.16 23.36 177.73 12.92 185.88&#10;  Q 3.95 192.88 4.05 204.23&#10;  Q 4.09 209.27 7.58 212.56&#10;  Z&#10;  M 33.17 226.30&#10;  Q 34.10 218.99 39.70 214.79&#10;  A 0.38 0.37 30.9 0 0 39.53 214.12&#10;  Q 35.93 213.52 30.42 213.75&#10;  C 28.49 213.83 27.55 215.19 26.98 216.80&#10;  Q 22.08 230.60 32.66 239.21&#10;  C 34.71 240.88 37.45 242.11 39.42 242.94&#10;  Q 41.92 244.00 39.74 242.39&#10;  Q 31.87 236.60 33.17 226.30&#10;  Z&#10;  M 35.03 228.04&#10;  Q 34.58 235.06 39.91 240.08&#10;  Q 44.38 244.29 48.51 244.98&#10;  Q 50.58 245.33 57.17 245.27&#10;  C 67.24 245.18 75.83 242.56 84.36 236.81&#10;  Q 93.45 231.02 96.57 220.12&#10;  Q 96.73 219.56 96.17 219.72&#10;  C 88.24 222.01 82.55 222.08 75.03 221.91&#10;  A 2.41 2.40 -86.5 0 0 72.59 224.08&#10;  Q 72.37 226.41 70.21 227.79&#10;  Q 65.83 228.36 64.08 226.18&#10;  L 63.44 221.66&#10;  Q 63.40 221.37 63.12 221.27&#10;  L 43.91 214.87&#10;  A 1.51 1.51 0.0 0 0 42.86 214.90&#10;  C 37.90 216.87 35.11 223.13 35.03 228.04&#10;  Z&#10;  M 21.62 215.14&#10;  L 15.41 216.86&#10;  A 0.22 0.22 0.0 0 0 15.26 217.13&#10;  L 15.40 217.63&#10;  A 3.80 3.28 74.5 0 0 19.57 220.42&#10;  L 19.88 220.33&#10;  A 3.80 3.28 74.5 0 0 22.03 215.80&#10;  L 21.89 215.30&#10;  A 0.22 0.22 0.0 0 0 21.62 215.14&#10;  Z&#10;  M 71.26 222.08&#10;  L 65.63 221.38&#10;  A 0.27 0.27 0.0 0 0 65.33 221.61&#10;  L 65.15 223.07&#10;  A 2.90 2.39 -82.9 0 0 67.16 226.24&#10;  L 68.59 226.42&#10;  A 2.90 2.39 -82.9 0 0 71.32 223.84&#10;  L 71.50 222.38&#10;  A 0.27 0.27 0.0 0 0 71.26 222.08&#10;  Z&#10;  M 45.38 255.01&#10;  L 40.92 253.83&#10;  A 0.60 0.59 -80.0 0 0 40.17 254.36&#10;  L 39.35 264.70&#10;  Q 39.26 265.72 40.28 265.59&#10;  Q 43.36 265.18 47.10 265.95&#10;  Q 51.99 267.06 53.66 271.25&#10;  Q 54.17 272.54 55.44 272.00&#10;  Q 72.05 265.01 81.66 251.72&#10;  Q 82.57 250.46 81.12 251.02&#10;  Q 64.57 257.31 45.38 255.01&#10;  Z&#10;  M 148.70 260.03&#10;  C 152.92 259.75 155.27 260.66 158.42 263.53&#10;  Q 158.73 263.81 159.07 263.55&#10;  Q 163.66 259.84 167.11 254.55&#10;  A 0.14 0.14 0.0 0 0 166.98 254.34&#10;  L 151.52 255.85&#10;  Q 151.26 255.88 151.12 256.09&#10;  L 148.59 259.84&#10;  A 0.12 0.12 0.0 0 0 148.70 260.03&#10;  Z&#10;  M 147.76 261.55&#10;  A 0.93 0.91 14.6 0 0 147.15 261.90&#10;  L 143.09 267.03&#10;  A 0.59 0.59 0.0 0 0 143.42 267.97&#10;  Q 149.74 269.42 155.76 267.31&#10;  A 1.81 1.78 1.8 0 0 156.80 266.35&#10;  Q 157.62 264.45 155.42 263.01&#10;  Q 152.25 260.94 147.76 261.55&#10;  Z&#10;  M 234.0286 269.5882&#10;  A 8.93 4.25 -2.9 0 0 224.8950 265.7954&#10;  A 8.93 4.25 -2.9 0 0 216.1914 270.4918&#10;  A 8.93 4.25 -2.9 0 0 225.3250 274.2846&#10;  A 8.93 4.25 -2.9 0 0 234.0286 269.5882&#10;  Z&#10;  M 52.02 271.52&#10;  C 48.96 266.82 44.88 267.15 39.70 267.24&#10;  Q 37.73 267.28 36.70 268.18&#10;  Q 34.88 269.76 35.38 271.51&#10;  C 36.55 275.65 45.81 275.11 49.22 274.88&#10;  Q 50.84 274.77 51.80 273.78&#10;  A 1.82 1.82 0.0 0 0 52.02 271.52&#10;  Z&#10;  M 120.4500 283.7468&#10;  A 9.65 3.80 0.1 0 0 110.8066 279.9300&#10;  A 9.65 3.80 0.1 0 0 101.1500 283.7132&#10;  A 9.65 3.80 0.1 0 0 110.7934 287.5300&#10;  A 9.65 3.80 0.1 0 0 120.4500 283.7468&#10;  Z"/>
<path fill="#ed8599" d="&#10;  M 290.07 71.88&#10;  Q 290.37 76.58 290.73 81.08&#10;  Q 291.94 96.43 286.88 111.02&#10;  Q 276.05 142.30 248.03 159.94&#10;  Q 241.78 146.24 230.93 135.31&#10;  Q 227.58 131.93 225.60 129.90&#10;  Q 225.23 129.52 225.72 129.32&#10;  C 238.27 124.09 247.70 110.69 248.84 97.26&#10;  Q 250.82 74.04 234.40 57.81&#10;  Q 225.18 48.70 213.41 43.27&#10;  Q 196.14 35.31 177.41 33.55&#10;  Q 173.56 24.42 178.40 16.07&#10;  Q 179.46 14.24 180.61 12.22&#10;  Q 190.15 11.45 199.99 12.55&#10;  Q 225.18 15.35 248.22 27.77&#10;  C 266.96 37.87 282.22 52.04 290.07 71.88&#10;  Z"/>
<path fill="#ffffff" d="&#10;  M 180.61 12.22&#10;  Q 179.46 14.24 178.40 16.07&#10;  Q 173.56 24.42 177.41 33.55&#10;  Q 167.82 32.71 158.50 32.96&#10;  Q 146.10 33.29 133.29 36.91&#10;  C 130.10 37.82 128.26 34.87 130.21 32.20&#10;  Q 132.38 29.23 138.06 25.55&#10;  Q 157.20 13.16 180.61 12.22&#10;  Z"/>
<path fill="#ce7486" d="&#10;  M 248.03 159.94&#10;  Q 276.05 142.30 286.88 111.02&#10;  Q 291.94 96.43 290.73 81.08&#10;  Q 290.37 76.58 290.07 71.88&#10;  C 298.01 91.98 295.84 114.25 287.94 134.19&#10;  C 280.93 151.88 270.03 168.65 254.27 179.69&#10;  A 0.40 0.40 0.0 0 1 253.65 179.43&#10;  Q 252.10 169.55 248.03 159.94&#10;  Z"/>
<path fill="#ed8599" d="&#10;  M 219.33 265.11&#10;  Q 216.44 249.44 218.14 232.27&#10;  Q 223.66 225.96 226.81 216.82&#10;  Q 226.98 216.32 226.84 215.83&#10;  A 0.40 0.40 0.0 0 0 226.11 215.75&#10;  L 223.42 220.82&#10;  Q 213.76 228.48 204.49 232.01&#10;  Q 183.00 240.18 158.86 240.70&#10;  L 160.83 231.17&#10;  A 0.23 0.23 0.0 0 0 160.62 230.89&#10;  L 160.28 230.86&#10;  Q 159.99 230.84 159.93 231.13&#10;  Q 158.88 236.64 156.45 241.56&#10;  Q 140.74 265.03 118.44 279.55&#10;  Q 111.48 277.69 104.45 278.91&#10;  Q 103.96 279.00 103.92 278.50&#10;  C 102.57 259.14 106.82 239.17 118.42 223.33&#10;  Q 118.54 223.17 118.34 223.15&#10;  L 117.52 223.09&#10;  A 0.27 0.26 -66.1 0 0 117.30 223.18&#10;  Q 112.35 229.19 108.94 236.00&#10;  Q 106.89 235.94 106.72 234.07&#10;  Q 112.72 227.84 114.29 224.24&#10;  Q 119.91 211.35 110.05 203.98&#10;  C 106.54 201.36 100.91 200.03 97.19 198.73&#10;  Q 96.14 198.36 97.21 198.04&#10;  C 103.74 196.10 109.93 190.91 110.62 183.81&#10;  C 111.79 171.75 105.03 158.18 91.38 158.40&#10;  Q 77.10 158.62 72.45 172.72&#10;  Q 70.32 179.19 72.77 185.49&#10;  Q 73.04 186.18 72.39 185.82&#10;  Q 68.68 183.76 65.37 181.57&#10;  Q 60.08 178.08 58.43 177.27&#10;  Q 48.11 172.18 36.15 173.75&#10;  C 34.38 173.99 32.56 175.00 30.97 175.10&#10;  Q 30.38 175.14 30.58 174.59&#10;  Q 33.79 165.65 32.42 158.75&#10;  Q 31.58 154.51 26.78 155.64&#10;  Q 25.83 155.86 26.49 155.14&#10;  L 30.91 150.28&#10;  A 0.14 0.14 0.0 0 0 30.90 150.09&#10;  L 30.64 149.83&#10;  A 0.60 0.60 0.0 0 0 29.82 149.80&#10;  L 26.75 152.48&#10;  Q 22.05 148.41 19.56 140.79&#10;  Q 20.36 135.45 25.48 131.98&#10;  C 33.72 126.40 44.43 127.97 51.03 135.96&#10;  Q 51.35 136.35 50.87 136.53&#10;  Q 46.08 138.31 42.20 141.33&#10;  Q 42.09 141.42 42.19 141.52&#10;  L 42.44 141.77&#10;  Q 42.63 141.96 42.86 141.83&#10;  C 56.18 134.83 70.04 132.82 84.56 133.96&#10;  Q 93.85 134.69 103.25 138.98&#10;  Q 104.03 139.33 103.76 140.15&#10;  Q 102.21 144.86 103.94 149.71&#10;  Q 104.02 149.91 104.24 149.90&#10;  L 104.57 149.87&#10;  Q 104.91 149.84 104.84 149.50&#10;  C 103.20 140.95 108.11 132.52 116.50 130.22&#10;  C 121.81 128.76 129.48 129.02 134.60 132.14&#10;  Q 137.81 134.09 140.32 138.56&#10;  Q 145.25 147.36 141.33 156.59&#10;  Q 133.81 160.86 126.50 160.24&#10;  Q 122.05 159.87 117.23 155.88&#10;  Q 114.93 148.26 121.30 145.33&#10;  Q 128.18 142.16 132.88 148.63&#10;  A 0.37 0.33 61.4 0 0 133.27 148.77&#10;  Q 133.35 148.74 133.46 148.54&#10;  Q 133.49 148.49 133.47 148.44&#10;  Q 131.79 143.28 126.00 142.96&#10;  C 118.32 142.53 113.98 147.93 115.16 155.16&#10;  Q 116.38 162.67 124.70 165.51&#10;  C 126.69 166.18 129.03 166.01 131.65 166.02&#10;  Q 132.30 166.02 132.63 166.59&#10;  Q 137.89 175.54 141.21 185.74&#10;  Q 141.30 186.03 141.61 186.10&#10;  L 141.98 186.18&#10;  A 0.23 0.23 0.0 0 0 142.26 185.90&#10;  Q 139.77 175.33 134.65 165.86&#10;  Q 134.37 165.35 134.89 165.09&#10;  C 146.02 159.45 148.39 147.78 142.49 137.29&#10;  C 137.79 128.92 130.31 126.85 121.25 127.25&#10;  Q 110.53 127.72 105.11 136.77&#10;  Q 104.84 137.21 104.38 136.98&#10;  Q 97.42 133.59 89.65 132.33&#10;  A 0.32 0.32 0.0 0 1 89.48 131.79&#10;  C 97.66 124.11 106.82 118.93 117.90 114.36&#10;  Q 124.89 111.47 131.52 110.04&#10;  Q 155.85 104.80 179.76 109.92&#10;  Q 206.48 115.64 226.91 134.94&#10;  Q 250.20 156.93 252.32 189.76&#10;  C 254.01 215.77 248.96 244.34 235.43 266.93&#10;  A 0.58 0.58 0.0 0 1 234.53 267.05&#10;  C 233.61 266.19 233.07 265.39 231.65 265.07&#10;  Q 225.95 263.77 219.33 265.11&#10;  Z"/>
<path fill="#ce7486" d="&#10;  M 19.56 140.79&#10;  Q 22.05 148.41 26.75 152.48&#10;  L 23.87 156.20&#10;  A 0.59 0.58 -46.8 0 1 22.98 156.23&#10;  Q 17.40 150.09 19.56 140.79&#10;  Z"/>
<path fill="#ce7486" d="&#10;  M 141.33 156.59&#10;  Q 135.39 166.52 124.78 163.46&#10;  Q 118.87 161.76 117.23 155.88&#10;  Q 122.05 159.87 126.50 160.24&#10;  Q 133.81 160.86 141.33 156.59&#10;  Z"/>
<path fill="#ffffff" d="&#10;  M 18.47 169.05&#10;  Q 22.08 161.07 24.19 158.68&#10;  Q 26.12 156.49 29.41 157.48&#10;  Q 29.83 157.60 30.05 157.99&#10;  C 32.55 162.45 30.13 171.27 27.99 175.57&#10;  Q 27.77 176.01 27.30 176.16&#10;  Q 20.23 178.43 14.75 182.01&#10;  Q 14.00 182.50 14.21 181.63&#10;  Q 15.87 174.79 18.47 169.05&#10;  Z&#10;  M 25.4367 171.2192&#10;  A 1.41 0.91 88.1 0 0 26.2995 169.7798&#10;  A 1.41 0.91 88.1 0 0 25.3433 168.4008&#10;  A 1.41 0.91 88.1 0 0 24.4805 169.8402&#10;  A 1.41 0.91 88.1 0 0 25.4367 171.2192&#10;  Z"/>
<path fill="#ffffff" d="&#10;  M 101.49 193.99&#10;  Q 97.99 196.10 95.44 196.52&#10;  Q 93.25 196.87 90.14 195.34&#10;  Q 84.73 192.68 78.30 189.21&#10;  Q 75.76 187.83 75.04 186.18&#10;  C 71.95 179.02 73.76 170.68 79.41 165.32&#10;  Q 86.12 158.96 96.31 161.29&#10;  Q 99.47 162.01 102.34 165.04&#10;  C 109.88 173.01 112.38 187.42 101.49 193.99&#10;  Z&#10;  M 95.0279 176.7594&#10;  A 0.92 0.92 0.0 0 0 94.1506 175.7986&#10;  L 93.8310 175.7841&#10;  A 0.92 0.92 0.0 0 0 92.8702 176.6614&#10;  L 92.8321 177.5006&#10;  A 0.92 0.92 0.0 0 0 93.7094 178.4614&#10;  L 94.0290 178.4759&#10;  A 0.92 0.92 0.0 0 0 94.9898 177.5986&#10;  L 95.0279 176.7594&#10;  Z"/>
<ellipse fill="#0d131a" cx="0.00" cy="0.00" transform="translate(25.39,169.81) rotate(88.1)" rx="1.41" ry="0.91"/>
<rect fill="#0d131a" x="-1.08" y="-1.34" transform="translate(93.93,177.13) rotate(2.6)" width="2.16" height="2.68" rx="0.92"/>
<path fill="#fff1ac" d="&#10;  M 109.39 227.84&#10;  Q 110.75 216.72 104.47 214.77&#10;  L 97.66 217.42&#10;  Q 84.92 218.06 73.48 217.36&#10;  Q 62.76 216.70 51.64 211.89&#10;  Q 42.13 207.79 31.74 208.72&#10;  Q 22.89 209.52 21.77 209.81&#10;  Q 14.88 211.62 7.58 212.56&#10;  Q 4.09 209.27 4.05 204.23&#10;  Q 3.95 192.88 12.92 185.88&#10;  C 23.36 177.73 38.50 174.16 51.62 177.15&#10;  C 55.52 178.04 59.75 180.32 63.65 182.89&#10;  Q 74.97 190.32 89.73 197.36&#10;  Q 96.84 200.75 103.36 202.72&#10;  C 115.63 206.42 117.26 218.75 109.39 227.84&#10;  Z&#10;  M 22.09 200.10&#10;  L 20.82 200.54&#10;  A 0.22 0.22 0.0 0 0 20.69 200.82&#10;  L 20.73 200.95&#10;  A 5.52 0.72 70.9 0 0 23.22 205.93&#10;  L 23.54 205.82&#10;  A 5.52 0.72 70.9 0 0 22.42 200.37&#10;  L 22.37 200.24&#10;  A 0.22 0.22 0.0 0 0 22.09 200.10&#10;  Z&#10;  M 41.31 201.16&#10;  L 37.35 205.26&#10;  A 0.15 0.15 0.0 0 0 37.35 205.47&#10;  L 37.38 205.49&#10;  A 1.84 1.32 -46.0 0 0 39.60 205.09&#10;  L 41.22 203.42&#10;  A 1.84 1.32 -46.0 0 0 41.54 201.18&#10;  L 41.52 201.16&#10;  A 0.15 0.15 0.0 0 0 41.31 201.16&#10;  Z"/>
<path fill="#0d131a" d="&#10;  M 22.09 200.10&#10;  A 0.22 0.22 0.0 0 1 22.37 200.24&#10;  L 22.42 200.37&#10;  A 5.52 0.72 70.9 0 1 23.54 205.82&#10;  L 23.22 205.93&#10;  A 5.52 0.72 70.9 0 1 20.73 200.95&#10;  L 20.69 200.82&#10;  A 0.22 0.22 0.0 0 1 20.82 200.54&#10;  L 22.09 200.10&#10;  Z"/>
<path fill="#0d131a" d="&#10;  M 41.31 201.16&#10;  A 0.15 0.15 0.0 0 1 41.52 201.16&#10;  L 41.54 201.18&#10;  A 1.84 1.32 -46.0 0 1 41.22 203.42&#10;  L 39.60 205.09&#10;  A 1.84 1.32 -46.0 0 1 37.38 205.49&#10;  L 37.35 205.47&#10;  A 0.15 0.15 0.0 0 1 37.35 205.26&#10;  L 41.31 201.16&#10;  Z"/>
<path fill="#dcd096" d="&#10;  M 97.66 217.42&#10;  Q 91.94 219.91 86.46 220.12&#10;  Q 80.25 220.37 74.00 220.08&#10;  Q 63.41 219.61 53.49 216.18&#10;  Q 46.29 213.69 46.26 213.68&#10;  Q 34.30 210.19 21.32 213.72&#10;  Q 18.07 214.61 14.76 215.28&#10;  Q 10.78 216.09 7.58 212.56&#10;  Q 14.88 211.62 21.77 209.81&#10;  Q 22.89 209.52 31.74 208.72&#10;  Q 42.13 207.79 51.64 211.89&#10;  Q 62.76 216.70 73.48 217.36&#10;  Q 84.92 218.06 97.66 217.42&#10;  Z"/>
<path fill="#922f00" d="&#10;  M 33.17 226.30&#10;  Q 31.87 236.60 39.74 242.39&#10;  Q 41.92 244.00 39.42 242.94&#10;  C 37.45 242.11 34.71 240.88 32.66 239.21&#10;  Q 22.08 230.60 26.98 216.80&#10;  C 27.55 215.19 28.49 213.83 30.42 213.75&#10;  Q 35.93 213.52 39.53 214.12&#10;  A 0.38 0.37 30.9 0 1 39.70 214.79&#10;  Q 34.10 218.99 33.17 226.30&#10;  Z"/>
<path fill="#dcd096" d="&#10;  M 104.47 214.77&#10;  Q 110.75 216.72 109.39 227.84&#10;  Q 101.26 238.81 88.54 245.53&#10;  Q 78.20 250.99 65.86 252.95&#10;  C 60.69 253.77 54.83 253.52 49.27 253.45&#10;  Q 46.36 253.42 40.59 251.45&#10;  C 28.32 247.27 21.60 236.62 22.27 223.57&#10;  C 22.42 220.66 23.75 218.12 23.82 215.21&#10;  Q 23.84 214.54 24.50 214.48&#10;  L 25.85 214.35&#10;  Q 26.43 214.29 26.19 214.82&#10;  Q 20.72 226.62 27.49 236.32&#10;  C 34.22 245.95 46.10 247.20 56.84 247.28&#10;  C 66.65 247.36 75.20 244.64 83.79 239.27&#10;  Q 95.46 231.96 99.07 218.95&#10;  Q 99.20 218.47 99.66 218.27&#10;  Q 102.06 217.24 104.47 214.77&#10;  Z"/>
<path fill="#ce7486" d="&#10;  M 64.08 226.18&#10;  Q 53.39 224.55 44.14 225.64&#10;  Q 40.45 226.08 35.03 228.04&#10;  C 35.11 223.13 37.90 216.87 42.86 214.90&#10;  A 1.51 1.51 0.0 0 1 43.91 214.87&#10;  L 63.12 221.27&#10;  Q 63.40 221.37 63.44 221.66&#10;  L 64.08 226.18&#10;  Z"/>
<path fill="#ffffff" d="&#10;  M 21.62 215.14&#10;  A 0.22 0.22 0.0 0 1 21.89 215.30&#10;  L 22.03 215.80&#10;  A 3.80 3.28 74.5 0 1 19.88 220.33&#10;  L 19.57 220.42&#10;  A 3.80 3.28 74.5 0 1 15.40 217.63&#10;  L 15.26 217.13&#10;  A 0.22 0.22 0.0 0 1 15.41 216.86&#10;  L 21.62 215.14&#10;  Z"/>
<path fill="#ce7486" d="&#10;  M 84.36 236.81&#10;  Q 78.75 231.38 70.21 227.79&#10;  Q 72.37 226.41 72.59 224.08&#10;  A 2.41 2.40 -86.5 0 1 75.03 221.91&#10;  C 82.55 222.08 88.24 222.01 96.17 219.72&#10;  Q 96.73 219.56 96.57 220.12&#10;  Q 93.45 231.02 84.36 236.81&#10;  Z"/>
<path fill="#ffffff" d="&#10;  M 71.26 222.08&#10;  A 0.27 0.27 0.0 0 1 71.50 222.38&#10;  L 71.32 223.84&#10;  A 2.90 2.39 -82.9 0 1 68.59 226.42&#10;  L 67.16 226.24&#10;  A 2.90 2.39 -82.9 0 1 65.15 223.07&#10;  L 65.33 221.61&#10;  A 0.27 0.27 0.0 0 1 65.63 221.38&#10;  L 71.26 222.08&#10;  Z"/>
<path fill="#ce7486" d="&#10;  M 223.42 220.82&#10;  Q 218.61 229.81 210.93 235.46&#10;  Q 198.93 244.29 184.92 248.01&#10;  C 174.60 250.76 164.45 252.65 153.53 253.37&#10;  Q 153.00 253.41 153.22 252.92&#10;  L 158.86 240.70&#10;  Q 183.00 240.18 204.49 232.01&#10;  Q 213.76 228.48 223.42 220.82&#10;  Z"/>
<path fill="#ed8599" d="&#10;  M 64.08 226.18&#10;  Q 65.83 228.36 70.21 227.79&#10;  Q 78.75 231.38 84.36 236.81&#10;  C 75.83 242.56 67.24 245.18 57.17 245.27&#10;  Q 50.58 245.33 48.51 244.98&#10;  Q 44.38 244.29 39.91 240.08&#10;  Q 34.58 235.06 35.03 228.04&#10;  Q 40.45 226.08 44.14 225.64&#10;  Q 53.39 224.55 64.08 226.18&#10;  Z"/>
<path fill="#ce7486" d="&#10;  M 218.14 232.27&#10;  Q 216.44 249.44 219.33 265.11&#10;  L 215.81 267.30&#10;  Q 215.37 267.57 215.16 267.11&#10;  Q 209.59 254.97 206.99 241.88&#10;  Q 206.90 241.38 207.29 241.06&#10;  L 218.14 232.27&#10;  Z"/>
<path fill="#ce7486" d="&#10;  M 106.72 234.07&#10;  Q 106.89 235.94 108.94 236.00&#10;  Q 105.50 243.19 103.57 250.99&#10;  Q 103.44 251.52 102.91 251.40&#10;  L 88.94 248.30&#10;  Q 88.04 248.10 88.85 247.66&#10;  Q 98.93 242.22 106.72 234.07&#10;  Z"/>
<path fill="#ce7486" d="&#10;  M 156.45 241.56&#10;  Q 149.61 257.23 136.74 270.99&#10;  Q 129.68 278.54 122.76 282.83&#10;  Q 122.36 283.08 122.01 282.76&#10;  L 118.44 279.55&#10;  Q 140.74 265.03 156.45 241.56&#10;  Z"/>
<path fill="#ce7486" d="&#10;  M 47.10 265.95&#10;  Q 47.52 260.83 45.38 255.01&#10;  Q 64.57 257.31 81.12 251.02&#10;  Q 82.57 250.46 81.66 251.72&#10;  Q 72.05 265.01 55.44 272.00&#10;  Q 54.17 272.54 53.66 271.25&#10;  Q 51.99 267.06 47.10 265.95&#10;  Z"/>
<path fill="#ed8599" d="&#10;  M 45.38 255.01&#10;  Q 47.52 260.83 47.10 265.95&#10;  Q 43.36 265.18 40.28 265.59&#10;  Q 39.26 265.72 39.35 264.70&#10;  L 40.17 254.36&#10;  A 0.60 0.59 -80.0 0 1 40.92 253.83&#10;  L 45.38 255.01&#10;  Z"/>
<path fill="#ce7486" d="&#10;  M 158.42 263.53&#10;  C 155.27 260.66 152.92 259.75 148.70 260.03&#10;  A 0.12 0.12 0.0 0 1 148.59 259.84&#10;  L 151.12 256.09&#10;  Q 151.26 255.88 151.52 255.85&#10;  L 166.98 254.34&#10;  A 0.14 0.14 0.0 0 1 167.11 254.55&#10;  Q 163.66 259.84 159.07 263.55&#10;  Q 158.73 263.81 158.42 263.53&#10;  Z"/>
<path fill="#ffffff" d="&#10;  M 147.76 261.55&#10;  Q 152.25 260.94 155.42 263.01&#10;  Q 157.62 264.45 156.80 266.35&#10;  A 1.81 1.78 1.8 0 1 155.76 267.31&#10;  Q 149.74 269.42 143.42 267.97&#10;  A 0.59 0.59 0.0 0 1 143.09 267.03&#10;  L 147.15 261.90&#10;  A 0.93 0.91 14.6 0 1 147.76 261.55&#10;  Z"/>
<ellipse fill="#ffffff" cx="0.00" cy="0.00" transform="translate(225.11,270.04) rotate(-2.9)" rx="8.93" ry="4.25"/>
<path fill="#ffffff" d="&#10;  M 39.70 267.24&#10;  C 44.88 267.15 48.96 266.82 52.02 271.52&#10;  A 1.82 1.82 0.0 0 1 51.80 273.78&#10;  Q 50.84 274.77 49.22 274.88&#10;  C 45.81 275.11 36.55 275.65 35.38 271.51&#10;  Q 34.88 269.76 36.70 268.18&#10;  Q 37.73 267.28 39.70 267.24&#10;  Z"/>
<ellipse fill="#ffffff" cx="0.00" cy="0.00" transform="translate(110.80,283.73) rotate(0.1)" rx="9.65" ry="3.80"/>
</svg>