<?xml version="1.0" encoding="UTF-8"?>
<svg xmlns="http://www.w3.org/2000/svg"
     xmlns:xlink="http://www.w3.org/1999/xlink"
     version="1.2"
     width="360mm" height="90mm" viewBox="0 0 360 90"
     stroke="none"
     fill="#000000"
     stroke-width="0.3"
     font-size="3.88"
>
<defs>
  <marker id="arrow" markerWidth="15" markerHeight="7" refX="5" refY="3.5" orient="auto" markerUnits="strokeWidth">
    <path d="M0,0 L15,3.5 L0,7 z" stroke="context-stroke" fill="context-stroke"/>
  </marker>
</defs>
<g stroke-width="0.53" fill="#000000" fill-opacity="0.000" stroke="#D3D3D3" id="img-12e9b636-1">
  <g transform="translate(42.5,7.5)">
    <path fill="none" d="M-6.25,0 L6.25,0 " class="primitive"/>
  </g>
  <g transform="translate(192.5,7.5)">
    <path fill="none" d="M6.25,0 L-6.25,0 " class="primitive"/>
  </g>
  <g transform="translate(42.5,32.5)">
    <path fill="none" d="M-6.25,0 L6.25,0 " class="primitive"/>
  </g>
  <g transform="translate(292.5,32.5)">
    <path fill="none" d="M6.25,0 L-6.25,0 " class="primitive"/>
  </g>
  <g transform="translate(55,57.5)">
    <path fill="none" d="M-18.75,0 L18.75,0 " class="primitive"/>
  </g>
  <g transform="translate(292.5,57.5)">
    <path fill="none" d="M6.25,0 L-6.25,0 " class="primitive"/>
  </g>
  <g transform="translate(42.5,82.5)">
    <path fill="none" d="M-6.25,0 L6.25,0 " class="primitive"/>
  </g>
  <g transform="translate(317.5,82.5)">
    <path fill="none" d="M6.25,0 L-6.25,0 " class="primitive"/>
  </g>
  <g transform="translate(80,7.5)">
    <path fill="none" d="M-18.75,0 L18.75,0 " class="primitive"/>
  </g>
  <g transform="translate(80,82.5)">
    <path fill="none" d="M-18.75,0 L18.75,0 " class="primitive"/>
  </g>
  <g transform="translate(105,26.25)">
    <path fill="none" d="M0,-17.19 L0,17.19 " class="primitive"/>
  </g>
  <g transform="translate(142.5,7.5)">
    <path fill="none" d="M-31.25,0 L31.25,0 " class="primitive"/>
  </g>
  <g transform="translate(105,63.75)">
    <path fill="none" d="M0,17.19 L0,-17.19 " class="primitive"/>
  </g>
  <g transform="translate(142.5,82.5)">
    <path fill="none" d="M-31.25,0 L31.25,0 " class="primitive"/>
  </g>
  <g transform="translate(180,45)">
    <path fill="none" d="M0,35.94 L0,-35.94 " class="primitive"/>
  </g>
  <g transform="translate(192.5,82.5)">
    <path fill="none" d="M-6.25,0 L6.25,0 " class="primitive"/>
  </g>
  <g transform="translate(217.5,82.5)">
    <path fill="none" d="M-6.25,0 L6.25,0 " class="primitive"/>
  </g>
  <g transform="translate(242.5,82.5)">
    <path fill="none" d="M-6.25,0 L6.25,0 " class="primitive"/>
  </g>
  <g transform="translate(267.5,82.5)">
    <path fill="none" d="M-6.25,0 L6.25,0 " class="primitive"/>
  </g>
  <g transform="translate(292.5,82.5)">
    <path fill="none" d="M-6.25,0 L6.25,0 " class="primitive"/>
  </g>
  <g transform="translate(67.5,32.5)">
    <path fill="none" d="M-6.25,0 L6.25,0 " class="primitive"/>
  </g>
  <g transform="translate(80,45)">
    <path fill="none" d="M0,-10.94 L0,10.94 " class="primitive"/>
  </g>
  <g transform="translate(105,32.5)">
    <path fill="none" d="M-18.75,0 L18.75,0 " class="primitive"/>
  </g>
  <g transform="translate(117.5,57.5)">
    <path fill="none" d="M-31.25,0 L31.25,0 " class="primitive"/>
  </g>
  <g transform="translate(142.5,32.5)">
    <path fill="none" d="M-6.25,0 L6.25,0 " class="primitive"/>
  </g>
  <g transform="translate(155,45)">
    <path fill="none" d="M0,-10.94 L0,10.94 " class="primitive"/>
  </g>
  <g transform="translate(180,32.5)">
    <path fill="none" d="M-18.75,0 L18.75,0 " class="primitive"/>
  </g>
  <g transform="translate(180,57.5)">
    <path fill="none" d="M-18.75,0 L18.75,0 " class="primitive"/>
  </g>
  <g transform="translate(217.5,57.5)">
    <path fill="none" d="M-6.25,0 L6.25,0 " class="primitive"/>
  </g>
  <g transform="translate(242.5,32.5)">
    <path fill="none" d="M-31.25,0 L31.25,0 " class="primitive"/>
  </g>
  <g transform="translate(242.5,57.5)">
    <path fill="none" d="M-6.25,0 L6.25,0 " class="primitive"/>
  </g>
  <g transform="translate(267.5,57.5)">
    <path fill="none" d="M-6.25,0 L6.25,0 " class="primitive"/>
  </g>
  <g transform="translate(280,45)">
    <path fill="none" d="M0,-10.94 L0,10.94 " class="primitive"/>
  </g>
</g>
<g stroke-width="0.53" stroke="#D3D3D3" id="img-12e9b636-2">
</g>
<g font-size="4" stroke="#000000" stroke-opacity="0.000" fill="#000000" id="img-12e9b636-3">
  <g transform="translate(42.5,7.5)">
    <g class="primitive">
      <text text-anchor="middle" dy="0.35em"></text>
    </g>
  </g>
  <g transform="translate(192.5,7.5)">
    <g class="primitive">
      <text text-anchor="middle" dy="0.35em"></text>
    </g>
  </g>
  <g transform="translate(42.5,32.5)">
    <g class="primitive">
      <text text-anchor="middle" dy="0.35em"></text>
    </g>
  </g>
  <g transform="translate(292.5,32.5)">
    <g class="primitive">
      <text text-anchor="middle" dy="0.35em"></text>
    </g>
  </g>
  <g transform="translate(55,57.5)">
    <g class="primitive">
      <text text-anchor="middle" dy="0.35em"></text>
    </g>
  </g>
  <g transform="translate(292.5,57.5)">
    <g class="primitive">
      <text text-anchor="middle" dy="0.35em"></text>
    </g>
  </g>
  <g transform="translate(42.5,82.5)">
    <g class="primitive">
      <text text-anchor="middle" dy="0.35em"></text>
    </g>
  </g>
  <g transform="translate(317.5,82.5)">
    <g class="primitive">
      <text text-anchor="middle" dy="0.35em"></text>
    </g>
  </g>
  <g transform="translate(80,7.5)">
    <g class="primitive">
      <text text-anchor="middle" dy="0.35em"></text>
    </g>
  </g>
  <g transform="translate(80,82.5)">
    <g class="primitive">
      <text text-anchor="middle" dy="0.35em"></text>
    </g>
  </g>
  <g transform="translate(105,26.25)">
    <g class="primitive">
      <text text-anchor="middle" dy="0.35em"></text>
    </g>
  </g>
  <g transform="translate(142.5,7.5)">
    <g class="primitive">
      <text text-anchor="middle" dy="0.35em"></text>
    </g>
  </g>
  <g transform="translate(105,63.75)">
    <g class="primitive">
      <text text-anchor="middle" dy="0.35em"></text>
    </g>
  </g>
  <g transform="translate(142.5,82.5)">
    <g class="primitive">
      <text text-anchor="middle" dy="0.35em"></text>
    </g>
  </g>
  <g transform="translate(180,45)">
    <g class="primitive">
      <text text-anchor="middle" dy="0.35em"></text>
    </g>
  </g>
  <g transform="translate(192.5,82.5)">
    <g class="primitive">
      <text text-anchor="middle" dy="0.35em"></text>
    </g>
  </g>
  <g transform="translate(217.5,82.5)">
    <g class="primitive">
      <text text-anchor="middle" dy="0.35em"></text>
    </g>
  </g>
  <g transform="translate(242.5,82.5)">
    <g class="primitive">
      <text text-anchor="middle" dy="0.35em"></text>
    </g>
  </g>
  <g transform="translate(267.5,82.5)">
    <g class="primitive">
      <text text-anchor="middle" dy="0.35em"></text>
    </g>
  </g>
  <g transform="translate(292.5,82.5)">
    <g class="primitive">
      <text text-anchor="middle" dy="0.35em"></text>
    </g>
  </g>
  <g transform="translate(67.5,32.5)">
    <g class="primitive">
      <text text-anchor="middle" dy="0.35em"></text>
    </g>
  </g>
  <g transform="translate(80,45)">
    <g class="primitive">
      <text text-anchor="middle" dy="0.35em"></text>
    </g>
  </g>
  <g transform="translate(105,32.5)">
    <g class="primitive">
      <text text-anchor="middle" dy="0.35em"></text>
    </g>
  </g>
  <g transform="translate(117.5,57.5)">
    <g class="primitive">
      <text text-anchor="middle" dy="0.35em"></text>
    </g>
  </g>
  <g transform="translate(142.5,32.5)">
    <g class="primitive">
      <text text-anchor="middle" dy="0.35em"></text>
    </g>
  </g>
  <g transform="translate(155,45)">
    <g class="primitive">
      <text text-anchor="middle" dy="0.35em"></text>
    </g>
  </g>
  <g transform="translate(180,32.5)">
    <g class="primitive">
      <text text-anchor="middle" dy="0.35em"></text>
    </g>
  </g>
  <g transform="translate(180,57.5)">
    <g class="primitive">
      <text text-anchor="middle" dy="0.35em"></text>
    </g>
  </g>
  <g transform="translate(217.5,57.5)">
    <g class="primitive">
      <text text-anchor="middle" dy="0.35em"></text>
    </g>
  </g>
  <g transform="translate(242.5,32.5)">
    <g class="primitive">
      <text text-anchor="middle" dy="0.35em"></text>
    </g>
  </g>
  <g transform="translate(242.5,57.5)">
    <g class="primitive">
      <text text-anchor="middle" dy="0.35em"></text>
    </g>
  </g>
  <g transform="translate(267.5,57.5)">
    <g class="primitive">
      <text text-anchor="middle" dy="0.35em"></text>
    </g>
  </g>
  <g transform="translate(280,45)">
    <g class="primitive">
      <text text-anchor="middle" dy="0.35em"></text>
    </g>
  </g>
</g>
<g stroke-width="0" stroke="#000000" stroke-opacity="0.000" id="img-12e9b636-4">
  <g transform="translate(30,7.5)" fill="#ADD8E6">
    <circle cx="0" cy="0" r="6" class="primitive"/>
  </g>
  <g transform="translate(205,7.5)" fill="#808080">
    <circle cx="0" cy="0" r="6" class="primitive"/>
  </g>
  <g transform="translate(30,32.5)" fill="#ADD8E6">
    <circle cx="0" cy="0" r="6" class="primitive"/>
  </g>
  <g transform="translate(305,32.5)" fill="#808080">
    <circle cx="0" cy="0" r="6" class="primitive"/>
  </g>
  <g transform="translate(30,57.5)" fill="#ADD8E6">
    <circle cx="0" cy="0" r="6" class="primitive"/>
  </g>
  <g transform="translate(305,57.5)" fill="#808080">
    <circle cx="0" cy="0" r="6" class="primitive"/>
  </g>
  <g transform="translate(30,82.5)" fill="#ADD8E6">
    <circle cx="0" cy="0" r="6" class="primitive"/>
  </g>
  <g transform="translate(330,82.5)" fill="#808080">
    <circle cx="0" cy="0" r="6" class="primitive"/>
  </g>
  <g transform="translate(55,7.5)" fill="#FFFF00">
    <circle cx="0" cy="0" r="6" class="primitive"/>
  </g>
  <g transform="translate(55,82.5)" fill="#FFFF00">
    <circle cx="0" cy="0" r="6" class="primitive"/>
  </g>
  <g transform="translate(105,7.5)" fill="#008000">
    <circle cx="0" cy="0" r="6" class="primitive"/>
  </g>
  <g transform="translate(105,82.5)" fill="#008000">
    <circle cx="0" cy="0" r="6" class="primitive"/>
  </g>
  <g transform="translate(105,45)" fill="#FFFF00">
    <circle cx="0" cy="0" r="6" class="primitive"/>
  </g>
  <g transform="translate(180,82.5)" fill="#008000">
    <circle cx="0" cy="0" r="6" class="primitive"/>
  </g>
  <g transform="translate(180,7.5)" fill="#FF0000">
    <circle cx="0" cy="0" r="6" class="primitive"/>
  </g>
  <g transform="translate(205,82.5)" fill="#FFFF00">
    <circle cx="0" cy="0" r="6" class="primitive"/>
  </g>
  <g transform="translate(230,82.5)" fill="#008000">
    <circle cx="0" cy="0" r="6" class="primitive"/>
  </g>
  <g transform="translate(255,82.5)" fill="#FF0000">
    <circle cx="0" cy="0" r="6" class="primitive"/>
  </g>
  <g transform="translate(280,82.5)" fill="#008000">
    <circle cx="0" cy="0" r="6" class="primitive"/>
  </g>
  <g transform="translate(305,82.5)" fill="#FF0000">
    <circle cx="0" cy="0" r="6" class="primitive"/>
  </g>
  <g transform="translate(55,32.5)" fill="#008000">
    <circle cx="0" cy="0" r="6" class="primitive"/>
  </g>
  <g transform="translate(80,32.5)" fill="#008000">
    <circle cx="0" cy="0" r="6" class="primitive"/>
  </g>
  <g transform="translate(80,57.5)" fill="#FF0000">
    <circle cx="0" cy="0" r="6" class="primitive"/>
  </g>
  <g transform="translate(130,32.5)" fill="#FFFF00">
    <circle cx="0" cy="0" r="6" class="primitive"/>
  </g>
  <g transform="translate(155,32.5)" fill="#008000">
    <circle cx="0" cy="0" r="6" class="primitive"/>
  </g>
  <g transform="translate(155,57.5)" fill="#FF0000">
    <circle cx="0" cy="0" r="6" class="primitive"/>
  </g>
  <g transform="translate(205,57.5)" fill="#008000">
    <circle cx="0" cy="0" r="6" class="primitive"/>
  </g>
  <g transform="translate(205,32.5)" fill="#FFFF00">
    <circle cx="0" cy="0" r="6" class="primitive"/>
  </g>
  <g transform="translate(230,57.5)" fill="#FFFF00">
    <circle cx="0" cy="0" r="6" class="primitive"/>
  </g>
  <g transform="translate(255,57.5)" fill="#008000">
    <circle cx="0" cy="0" r="6" class="primitive"/>
  </g>
  <g transform="translate(280,32.5)" fill="#008000">
    <circle cx="0" cy="0" r="6" class="primitive"/>
  </g>
  <g transform="translate(280,57.5)" fill="#FF0000">
    <circle cx="0" cy="0" r="6" class="primitive"/>
  </g>
</g>
<g font-size="4" stroke="#000000" stroke-opacity="0.000" fill="#000000" id="img-12e9b636-5">
  <g transform="translate(30,7.5)">
    <g class="primitive">
      <text text-anchor="middle" dy="0.35em">[1]</text>
    </g>
  </g>
  <g transform="translate(205,7.5)">
    <g class="primitive">
      <text text-anchor="middle" dy="0.35em">[2]</text>
    </g>
  </g>
  <g transform="translate(30,32.5)">
    <g class="primitive">
      <text text-anchor="middle" dy="0.35em">[3]</text>
    </g>
  </g>
  <g transform="translate(305,32.5)">
    <g class="primitive">
      <text text-anchor="middle" dy="0.35em">[4]</text>
    </g>
  </g>
  <g transform="translate(30,57.5)">
    <g class="primitive">
      <text text-anchor="middle" dy="0.35em">[5]</text>
    </g>
  </g>
  <g transform="translate(305,57.5)">
    <g class="primitive">
      <text text-anchor="middle" dy="0.35em">[6]</text>
    </g>
  </g>
  <g transform="translate(30,82.5)">
    <g class="primitive">
      <text text-anchor="middle" dy="0.35em">[7]</text>
    </g>
  </g>
  <g transform="translate(330,82.5)">
    <g class="primitive">
      <text text-anchor="middle" dy="0.35em">[8]</text>
    </g>
  </g>
  <g transform="translate(55,7.5)">
    <g class="primitive">
      <text text-anchor="middle" dy="0.35em">[10]</text>
    </g>
  </g>
  <g transform="translate(55,82.5)">
    <g class="primitive">
      <text text-anchor="middle" dy="0.35em">[12]</text>
    </g>
  </g>
  <g transform="translate(105,7.5)">
    <g class="primitive">
      <text text-anchor="middle" dy="-0.25em">[13]<tspan x="0" dy="1.1000em">0π/1</tspan></text>
    </g>
  </g>
  <g transform="translate(105,82.5)">
    <g class="primitive">
      <text text-anchor="middle" dy="-0.25em">[14]<tspan x="0" dy="1.1000em">0π/1</tspan></text>
    </g>
  </g>
  <g transform="translate(105,45)">
    <g class="primitive">
      <text text-anchor="middle" dy="0.35em">[15]</text>
    </g>
  </g>
  <g transform="translate(180,82.5)">
    <g class="primitive">
      <text text-anchor="middle" dy="-0.25em">[16]<tspan x="0" dy="1.1000em">0π/1</tspan></text>
    </g>
  </g>
  <g transform="translate(180,7.5)">
    <g class="primitive">
      <text text-anchor="middle" dy="-0.25em">[17]<tspan x="0" dy="1.1000em">1π/4</tspan></text>
    </g>
  </g>
  <g transform="translate(205,82.5)">
    <g class="primitive">
      <text text-anchor="middle" dy="0.35em">[19]</text>
    </g>
  </g>
  <g transform="translate(230,82.5)">
    <g class="primitive">
      <text text-anchor="middle" dy="-0.25em">[21]<tspan x="0" dy="1.1000em">3π/2</tspan></text>
    </g>
  </g>
  <g transform="translate(255,82.5)">
    <g class="primitive">
      <text text-anchor="middle" dy="-0.25em">[22]<tspan x="0" dy="1.1000em">1π/1</tspan></text>
    </g>
  </g>
  <g transform="translate(280,82.5)">
    <g class="primitive">
      <text text-anchor="middle" dy="-0.25em">[24]<tspan x="0" dy="1.1000em">1π/2</tspan></text>
    </g>
  </g>
  <g transform="translate(305,82.5)">
    <g class="primitive">
      <text text-anchor="middle" dy="-0.25em">[25]<tspan x="0" dy="1.1000em">1π/1</tspan></text>
    </g>
  </g>
  <g transform="translate(55,32.5)">
    <g class="primitive">
      <text text-anchor="middle" dy="-0.25em">[26]<tspan x="0" dy="1.1000em">1π/2</tspan></text>
    </g>
  </g>
  <g transform="translate(80,32.5)">
    <g class="primitive">
      <text text-anchor="middle" dy="-0.25em">[27]<tspan x="0" dy="1.1000em">0π/1</tspan></text>
    </g>
  </g>
  <g transform="translate(80,57.5)">
    <g class="primitive">
      <text text-anchor="middle" dy="-0.25em">[28]<tspan x="0" dy="1.1000em">0π/1</tspan></text>
    </g>
  </g>
  <g transform="translate(130,32.5)">
    <g class="primitive">
      <text text-anchor="middle" dy="0.35em">[29]</text>
    </g>
  </g>
  <g transform="translate(155,32.5)">
    <g class="primitive">
      <text text-anchor="middle" dy="-0.25em">[30]<tspan x="0" dy="1.1000em">1π/4</tspan></text>
    </g>
  </g>
  <g transform="translate(155,57.5)">
    <g class="primitive">
      <text text-anchor="middle" dy="-0.25em">[31]<tspan x="0" dy="1.1000em">0π/1</tspan></text>
    </g>
  </g>
  <g transform="translate(205,57.5)">
    <g class="primitive">
      <text text-anchor="middle" dy="-0.25em">[33]<tspan x="0" dy="1.1000em">1π/2</tspan></text>
    </g>
  </g>
  <g transform="translate(205,32.5)">
    <g class="primitive">
      <text text-anchor="middle" dy="0.35em">[34]</text>
    </g>
  </g>
  <g transform="translate(230,57.5)">
    <g class="primitive">
      <text text-anchor="middle" dy="0.35em">[35]</text>
    </g>
  </g>
  <g transform="translate(255,57.5)">
    <g class="primitive">
      <text text-anchor="middle" dy="-0.25em">[36]<tspan x="0" dy="1.1000em">1π/2</tspan></text>
    </g>
  </g>
  <g transform="translate(280,32.5)">
    <g class="primitive">
      <text text-anchor="middle" dy="-0.25em">[37]<tspan x="0" dy="1.1000em">0π/1</tspan></text>
    </g>
  </g>
  <g transform="translate(280,57.5)">
    <g class="primitive">
      <text text-anchor="middle" dy="-0.25em">[38]<tspan x="0" dy="1.1000em">0π/1</tspan></text>
    </g>
  </g>
</g>
</svg>
